<svg xmlns="http://www.w3.org/2000/svg" width="2000" height="1310" viewBox="0 0 2000 1310">
<style>text{font-family:Segoe UI,Arial,sans-serif;letter-spacing:0}.title{fill:#f5f4ef;font-size:42px;font-weight:800}.subtitle{fill:#c9c6bd;font-size:20px}.note{fill:#aaa9a3;font-size:15px}.heading{fill:#f5f4ef;font-size:24px;font-weight:800}.label{fill:#efeee8;font-size:18px;font-weight:750}.detail{fill:#aaa9a3;font-size:14px}.value{fill:#f5f4ef;font-size:22px;font-weight:800}.axis{fill:#aaa9a3;font-size:14px}</style>
<rect width="2000" height="1310" fill="#121210"/>
<text x="70.0" y="76.0" class="title">Qwen3.6 NVFP4: NVIDIA vs Unsloth Native GGUF</text>
<text x="70.0" y="118.0" class="subtitle">RTX 5090, Windows 11, llama.cpp b9851, ctx=200k, draft-mtp n=2, no-thinking, 1024 generated tokens.</text>
<text x="70.0" y="150.0" class="note">Bars are llama.cpp decode-only generation throughput after prompt prefill. Each panel has its own scale.</text>
<text x="70.0" y="178.0" class="note">Unsloth mixed NVFP4/FP8 sources were converted with FP8 stored as Q8_0; FFN tensors remain native NVFP4.</text>
<rect x="40" y="188.0" width="1920" height="218.0" rx="8" fill="#1b1b18"/>
<text x="70.0" y="240.0" class="heading">27B | 10K prompt | 8,907 actual prompt tokens</text>
<line x1="800.0" y1="260.0" x2="800.0" y2="392.0" stroke="#34342f" stroke-width="1"/>
<text x="800.0" y="420.0" class="axis" text-anchor="middle">0</text>
<line x1="1160.0" y1="260.0" x2="1160.0" y2="392.0" stroke="#34342f" stroke-width="1"/>
<text x="1160.0" y="420.0" class="axis" text-anchor="middle">25</text>
<line x1="1520.0" y1="260.0" x2="1520.0" y2="392.0" stroke="#34342f" stroke-width="1"/>
<text x="1520.0" y="420.0" class="axis" text-anchor="middle">50</text>
<line x1="1880.0" y1="260.0" x2="1880.0" y2="392.0" stroke="#34342f" stroke-width="1"/>
<text x="1880.0" y="420.0" class="axis" text-anchor="middle">75</text>
<text x="766.0" y="300.0" class="label" text-anchor="end">NVIDIA</text>
<text x="766.0" y="322.0" class="detail" text-anchor="end">26.3 GiB file | 30.8 GiB VRAM | 52 C</text>
<rect x="800" y="278.0" width="993.5" height="34" rx="4" fill="#8fa3ba"/>
<text x="1807.5" y="302.0" class="value">69.0</text>
<text x="1878.5" y="302.0" class="axis">tok/s</text>
<text x="766.0" y="370.0" class="label" text-anchor="end">Unsloth</text>
<text x="766.0" y="392.0" class="detail" text-anchor="end">21.6 GiB file | 26.1 GiB VRAM | 46 C</text>
<rect x="800" y="348.0" width="1048.3" height="34" rx="4" fill="#e7b84b"/>
<text x="1862.3" y="372.0" class="value">72.8</text>
<text x="1933.3" y="372.0" class="axis">tok/s</text>
<rect x="40" y="428.0" width="1920" height="218.0" rx="8" fill="#1b1b18"/>
<text x="70.0" y="480.0" class="heading">27B | 200K prompt | 174,590 actual prompt tokens</text>
<line x1="800.0" y1="500.0" x2="800.0" y2="632.0" stroke="#34342f" stroke-width="1"/>
<text x="800.0" y="660.0" class="axis" text-anchor="middle">0</text>
<line x1="1340.0" y1="500.0" x2="1340.0" y2="632.0" stroke="#34342f" stroke-width="1"/>
<text x="1340.0" y="660.0" class="axis" text-anchor="middle">25</text>
<line x1="1880.0" y1="500.0" x2="1880.0" y2="632.0" stroke="#34342f" stroke-width="1"/>
<text x="1880.0" y="660.0" class="axis" text-anchor="middle">50</text>
<text x="766.0" y="540.0" class="label" text-anchor="end">NVIDIA</text>
<text x="766.0" y="562.0" class="detail" text-anchor="end">26.3 GiB file | 30.8 GiB VRAM | 61 C</text>
<rect x="800" y="518.0" width="910.4" height="34" rx="4" fill="#8fa3ba"/>
<text x="1724.4" y="542.0" class="value">42.2</text>
<text x="1795.4" y="542.0" class="axis">tok/s</text>
<text x="766.0" y="610.0" class="label" text-anchor="end">Unsloth</text>
<text x="766.0" y="632.0" class="detail" text-anchor="end">21.6 GiB file | 26.1 GiB VRAM | 60 C</text>
<rect x="800" y="588.0" width="952.8" height="34" rx="4" fill="#e7b84b"/>
<text x="1766.8" y="612.0" class="value">44.1</text>
<text x="1837.8" y="612.0" class="axis">tok/s</text>
<rect x="40" y="668.0" width="1920" height="218.0" rx="8" fill="#1b1b18"/>
<text x="70.0" y="720.0" class="heading">35B A3B | 10K prompt | 8,907 actual prompt tokens</text>
<line x1="800.0" y1="740.0" x2="800.0" y2="872.0" stroke="#34342f" stroke-width="1"/>
<text x="800.0" y="900.0" class="axis" text-anchor="middle">0</text>
<line x1="954.3" y1="740.0" x2="954.3" y2="872.0" stroke="#34342f" stroke-width="1"/>
<text x="954.3" y="900.0" class="axis" text-anchor="middle">25</text>
<line x1="1108.6" y1="740.0" x2="1108.6" y2="872.0" stroke="#34342f" stroke-width="1"/>
<text x="1108.6" y="900.0" class="axis" text-anchor="middle">50</text>
<line x1="1262.9" y1="740.0" x2="1262.9" y2="872.0" stroke="#34342f" stroke-width="1"/>
<text x="1262.9" y="900.0" class="axis" text-anchor="middle">75</text>
<line x1="1417.1" y1="740.0" x2="1417.1" y2="872.0" stroke="#34342f" stroke-width="1"/>
<text x="1417.1" y="900.0" class="axis" text-anchor="middle">100</text>
<line x1="1571.4" y1="740.0" x2="1571.4" y2="872.0" stroke="#34342f" stroke-width="1"/>
<text x="1571.4" y="900.0" class="axis" text-anchor="middle">125</text>
<line x1="1725.7" y1="740.0" x2="1725.7" y2="872.0" stroke="#34342f" stroke-width="1"/>
<text x="1725.7" y="900.0" class="axis" text-anchor="middle">150</text>
<line x1="1880.0" y1="740.0" x2="1880.0" y2="872.0" stroke="#34342f" stroke-width="1"/>
<text x="1880.0" y="900.0" class="axis" text-anchor="middle">175</text>
<text x="766.0" y="780.0" class="label" text-anchor="end">NVIDIA</text>
<text x="766.0" y="802.0" class="detail" text-anchor="end">22.2 GiB file | 24.6 GiB VRAM | 44 C</text>
<rect x="800" y="758.0" width="931.5" height="34" rx="4" fill="#8fa3ba"/>
<text x="1745.5" y="782.0" class="value">150.9</text>
<text x="1816.5" y="782.0" class="axis">tok/s</text>
<text x="766.0" y="850.0" class="label" text-anchor="end">Unsloth</text>
<text x="766.0" y="872.0" class="detail" text-anchor="end">24.3 GiB file | 26.7 GiB VRAM | 41 C</text>
<rect x="800" y="828.0" width="932.9" height="34" rx="4" fill="#e7b84b"/>
<text x="1746.9" y="852.0" class="value">151.2</text>
<text x="1817.9" y="852.0" class="axis">tok/s</text>
<rect x="40" y="908.0" width="1920" height="218.0" rx="8" fill="#1b1b18"/>
<text x="70.0" y="960.0" class="heading">35B A3B | 200K prompt | 174,590 actual prompt tokens</text>
<line x1="800.0" y1="980.0" x2="800.0" y2="1112.0" stroke="#34342f" stroke-width="1"/>
<text x="800.0" y="1140.0" class="axis" text-anchor="middle">0</text>
<line x1="1070.0" y1="980.0" x2="1070.0" y2="1112.0" stroke="#34342f" stroke-width="1"/>
<text x="1070.0" y="1140.0" class="axis" text-anchor="middle">25</text>
<line x1="1340.0" y1="980.0" x2="1340.0" y2="1112.0" stroke="#34342f" stroke-width="1"/>
<text x="1340.0" y="1140.0" class="axis" text-anchor="middle">50</text>
<line x1="1610.0" y1="980.0" x2="1610.0" y2="1112.0" stroke="#34342f" stroke-width="1"/>
<text x="1610.0" y="1140.0" class="axis" text-anchor="middle">75</text>
<line x1="1880.0" y1="980.0" x2="1880.0" y2="1112.0" stroke="#34342f" stroke-width="1"/>
<text x="1880.0" y="1140.0" class="axis" text-anchor="middle">100</text>
<text x="766.0" y="1020.0" class="label" text-anchor="end">NVIDIA</text>
<text x="766.0" y="1042.0" class="detail" text-anchor="end">22.2 GiB file | 24.6 GiB VRAM | 52 C</text>
<rect x="800" y="998.0" width="974.6" height="34" rx="4" fill="#8fa3ba"/>
<text x="1788.6" y="1022.0" class="value">90.2</text>
<text x="1859.6" y="1022.0" class="axis">tok/s</text>
<text x="766.0" y="1090.0" class="label" text-anchor="end">Unsloth</text>
<text x="766.0" y="1112.0" class="detail" text-anchor="end">24.3 GiB file | 26.7 GiB VRAM | 50 C</text>
<rect x="800" y="1068.0" width="1006.6" height="34" rx="4" fill="#e7b84b"/>
<text x="1820.6" y="1092.0" class="value">93.2</text>
<text x="1891.6" y="1092.0" class="axis">tok/s</text>
<text x="70.0" y="1255.0" class="note">Sources: fresh local benchmark CSVs dated 2026-07-10. Native Windows CUDA only; no Docker/vLLM rows in this comparison.</text>
<text x="1930.0" y="1255.0" class="note" text-anchor="end">neko-legends/nvidia-local-llm-profiles</text>
</svg>
