<svg xmlns="http://www.w3.org/2000/svg" width="1800" height="860" viewBox="0 0 1800 860">
<style>
text{font-family:Segoe UI,Arial,sans-serif;letter-spacing:0}
.title{fill:#f3f5f7;font-size:42px;font-weight:800}
.subtitle{fill:#b8c2cc;font-size:20px}
.note{fill:#9aa6b2;font-size:15px}
.group{fill:#f3f5f7;font-size:24px;font-weight:800}
.detail{fill:#8f9ba8;font-size:15px}
.build{fill:#e8edf2;font-size:18px;font-weight:750}
.value{fill:#f3f5f7;font-size:22px;font-weight:800}
.axis{fill:#8f9ba8;font-size:15px}
.speedup{fill:#ffb86b;font-size:18px;font-weight:800}
</style>
<rect width="1800" height="860" fill="#101318"/>
<rect x="432" y="186" width="1176" height="526" rx="10" fill="#171d24"/>
<text x="70.0" y="76.0" class="title">llama.cpp Build Upgrade: b9761 -&gt; b9851</text>
<text x="70.0" y="118.0" class="subtitle">NVIDIA Qwen3.6 35B A3B NVFP4 MTP GGUF on RTX 5090. Bars show llama.cpp decode tok/s only.</text>
<text x="70.0" y="152.0" class="note">Same GGUF, CUDA 13.3 Windows builds, draft-mtp n=2, no-thinking, q4 target/draft KV. No wall-rate numbers shown.</text>
<text x="70.0" y="178.0" class="note">The 300K target reaches the model&#x27;s 262K context cap and truncates after 183 generated tokens; treat it as a max-context edge check.</text>
<line x1="460.0" y1="210" x2="460.0" y2="738" stroke="#2d3540" stroke-width="1"/>
<text x="460.0" y="766.0" class="axis" text-anchor="middle">0</text>
<line x1="620.0" y1="210" x2="620.0" y2="738" stroke="#2d3540" stroke-width="1"/>
<text x="620.0" y="766.0" class="axis" text-anchor="middle">25</text>
<line x1="780.0" y1="210" x2="780.0" y2="738" stroke="#2d3540" stroke-width="1"/>
<text x="780.0" y="766.0" class="axis" text-anchor="middle">50</text>
<line x1="940.0" y1="210" x2="940.0" y2="738" stroke="#2d3540" stroke-width="1"/>
<text x="940.0" y="766.0" class="axis" text-anchor="middle">75</text>
<line x1="1100.0" y1="210" x2="1100.0" y2="738" stroke="#2d3540" stroke-width="1"/>
<text x="1100.0" y="766.0" class="axis" text-anchor="middle">100</text>
<line x1="1260.0" y1="210" x2="1260.0" y2="738" stroke="#2d3540" stroke-width="1"/>
<text x="1260.0" y="766.0" class="axis" text-anchor="middle">125</text>
<line x1="1420.0" y1="210" x2="1420.0" y2="738" stroke="#2d3540" stroke-width="1"/>
<text x="1420.0" y="766.0" class="axis" text-anchor="middle">150</text>
<line x1="1580.0" y1="210" x2="1580.0" y2="738" stroke="#2d3540" stroke-width="1"/>
<text x="1580.0" y="766.0" class="axis" text-anchor="middle">175</text>
<text x="70.0" y="226.0" class="group">10K prompt</text>
<text x="70.0" y="252.0" class="detail">8,907 prompt tokens; 1024 generated; ctx slot 200,192</text>
<text x="70.0" y="278.0" class="speedup">b9851 +4.0%</text>
<text x="426.0" y="314.0" class="build" text-anchor="end">b9761 (721354f)</text>
<rect x="460" y="294" width="939.6" height="28" rx="5" fill="#8fa3ba" opacity="0.96"/>
<rect x="460" y="294" width="939.6" height="28" rx="5" fill="none" stroke="#f5fff9" stroke-opacity="0.44"/>
<text x="1413.6" y="315.0" class="value">146.8</text>
<text x="1475.6" y="315.0" class="axis">tok/s</text>
<text x="426.0" y="352.0" class="build" text-anchor="end">b9851 (0eca4d4)</text>
<rect x="460" y="332" width="977.5" height="28" rx="5" fill="#ff4d4d" opacity="0.96"/>
<rect x="460" y="332" width="977.5" height="28" rx="5" fill="none" stroke="#f5fff9" stroke-opacity="0.44"/>
<text x="1451.5" y="353.0" class="value">152.7</text>
<text x="1513.5" y="353.0" class="axis">tok/s</text>
<text x="70.0" y="376.0" class="group">200K prompt</text>
<text x="70.0" y="402.0" class="detail">174,590 prompt tokens; 1024 generated; ctx slot 200,192</text>
<text x="70.0" y="428.0" class="speedup">b9851 +2.1%</text>
<text x="426.0" y="464.0" class="build" text-anchor="end">b9761 (721354f)</text>
<rect x="460" y="444" width="566.5" height="28" rx="5" fill="#8fa3ba" opacity="0.96"/>
<rect x="460" y="444" width="566.5" height="28" rx="5" fill="none" stroke="#f5fff9" stroke-opacity="0.44"/>
<text x="1040.5" y="465.0" class="value">88.5</text>
<text x="1102.5" y="465.0" class="axis">tok/s</text>
<text x="426.0" y="502.0" class="build" text-anchor="end">b9851 (0eca4d4)</text>
<rect x="460" y="482" width="578.6" height="28" rx="5" fill="#ff4d4d" opacity="0.96"/>
<rect x="460" y="482" width="578.6" height="28" rx="5" fill="none" stroke="#f5fff9" stroke-opacity="0.44"/>
<text x="1052.6" y="503.0" class="value">90.4</text>
<text x="1114.6" y="503.0" class="axis">tok/s</text>
<text x="70.0" y="526.0" class="group">300K target / 262K cap</text>
<text x="70.0" y="552.0" class="detail">261,960 prompt tokens; 183 generated; truncated; ctx slot 262,144</text>
<text x="70.0" y="578.0" class="speedup">b9851 +1.6%</text>
<text x="426.0" y="614.0" class="build" text-anchor="end">b9761 (721354f)</text>
<rect x="460" y="594" width="435.6" height="28" rx="5" fill="#8fa3ba" opacity="0.96"/>
<rect x="460" y="594" width="435.6" height="28" rx="5" fill="none" stroke="#f5fff9" stroke-opacity="0.44"/>
<text x="909.6" y="615.0" class="value">68.1</text>
<text x="971.6" y="615.0" class="axis">tok/s</text>
<text x="426.0" y="652.0" class="build" text-anchor="end">b9851 (0eca4d4)</text>
<rect x="460" y="632" width="442.8" height="28" rx="5" fill="#ff4d4d" opacity="0.96"/>
<rect x="460" y="632" width="442.8" height="28" rx="5" fill="none" stroke="#f5fff9" stroke-opacity="0.44"/>
<text x="916.8" y="653.0" class="value">69.2</text>
<text x="978.8" y="653.0" class="axis">tok/s</text>
<text x="70.0" y="812.0" class="note">Source: server-side slot print_timing eval time. Prompt prefill and request wall time intentionally omitted.</text>
<text x="1730.0" y="812.0" class="note" text-anchor="end">neko-legends/nvidia-local-llm-profiles</text>
</svg>
