<svg xmlns="http://www.w3.org/2000/svg" width="1900" height="1628" viewBox="0 0 1900 1628">
<style>
text{font-family:Segoe UI,Arial,sans-serif;letter-spacing:0}
.title{fill:#edf3f7;font-size:42px;font-weight:750}
.subtitle{fill:#b5bec8;font-size:20px}
.group{fill:#edf3f7;font-size:24px;font-weight:750}
.label{fill:#edf3f7;font-size:18px;font-weight:700}
.label-highlight{fill:#ff4d4d;font-size:20px;font-weight:900}
.detail{fill:#8e99a6;font-size:14px}
.value{fill:#edf3f7;font-size:21px;font-weight:750}
.small{fill:#9aa5b1;font-size:16px}
.axis{fill:#9aa5b1;font-size:15px}
</style>
<rect width="1900" height="1628" fill="#111418"/>
<rect x="672" y="188" width="1136" height="1328" rx="10" fill="#181e25"/>
<text x="72.0" y="76.0" class="title">RTX 5090 Native llama.cpp Long-Context Comparison</text>
<text x="72.0" y="118.0" class="subtitle">Bars are generation/decode speed only; prompt prefill seconds are shown separately.</text>
<text x="72.0" y="150.0" class="small">Native GGUF endpoints only. Docker/vLLM and UI-observed rows are intentionally left out of this headline chart.</text>
<line x1="700.0" y1="212" x2="700.0" y2="1482" stroke="#2f3742" stroke-width="1"/>
<text x="700.0" y="1506.0" class="axis" text-anchor="middle">0</text>
<line x1="835.0" y1="212" x2="835.0" y2="1482" stroke="#2f3742" stroke-width="1"/>
<text x="835.0" y="1506.0" class="axis" text-anchor="middle">25</text>
<line x1="970.0" y1="212" x2="970.0" y2="1482" stroke="#2f3742" stroke-width="1"/>
<text x="970.0" y="1506.0" class="axis" text-anchor="middle">50</text>
<line x1="1105.0" y1="212" x2="1105.0" y2="1482" stroke="#2f3742" stroke-width="1"/>
<text x="1105.0" y="1506.0" class="axis" text-anchor="middle">75</text>
<line x1="1240.0" y1="212" x2="1240.0" y2="1482" stroke="#2f3742" stroke-width="1"/>
<text x="1240.0" y="1506.0" class="axis" text-anchor="middle">100</text>
<line x1="1375.0" y1="212" x2="1375.0" y2="1482" stroke="#2f3742" stroke-width="1"/>
<text x="1375.0" y="1506.0" class="axis" text-anchor="middle">125</text>
<line x1="1510.0" y1="212" x2="1510.0" y2="1482" stroke="#2f3742" stroke-width="1"/>
<text x="1510.0" y="1506.0" class="axis" text-anchor="middle">150</text>
<line x1="1645.0" y1="212" x2="1645.0" y2="1482" stroke="#2f3742" stroke-width="1"/>
<text x="1645.0" y="1506.0" class="axis" text-anchor="middle">175</text>
<line x1="1780.0" y1="212" x2="1780.0" y2="1482" stroke="#2f3742" stroke-width="1"/>
<text x="1780.0" y="1506.0" class="axis" text-anchor="middle">200</text>
<text x="72.0" y="208.0" class="group">10K prompt</text>
<text x="670.0" y="245.0" class="label" text-anchor="end">Ornith 1.0 35B Q4_K_M</text>
<text x="670.0" y="267.0" class="detail" text-anchor="end">8,905 prompt tokens; prefill 1.7s</text>
<rect x="700" y="224" width="996.3" height="34" rx="5" fill="#7edc72" opacity="0.95"/>
<rect x="700" y="224" width="996.3" height="34" rx="5" fill="none" stroke="#d9fff8" stroke-opacity="0.50"/>
<text x="1708.3" y="249.0" class="value">184.5</text>
<text x="1768.3" y="249.0" class="small">tok/s</text>
<text x="670.0" y="309.0" class="label" text-anchor="end">Qwopus3.6 35B A3B Coder Q4_K_M</text>
<text x="670.0" y="331.0" class="detail" text-anchor="end">8,907 prompt tokens; prefill 2.2s</text>
<rect x="700" y="288" width="977.4" height="34" rx="5" fill="#f2b846" opacity="0.95"/>
<rect x="700" y="288" width="977.4" height="34" rx="5" fill="none" stroke="#d9fff8" stroke-opacity="0.50"/>
<text x="1689.4" y="313.0" class="value">181.0</text>
<text x="1749.4" y="313.0" class="small">tok/s</text>
<text x="670.0" y="373.0" class="label" text-anchor="end">Qwopus3.6 35B A3B Coder Q5_K_M</text>
<text x="670.0" y="395.0" class="detail" text-anchor="end">8,907 prompt tokens; prefill 2.1s</text>
<rect x="700" y="352" width="802.4" height="34" rx="5" fill="#45d6c9" opacity="0.95"/>
<rect x="700" y="352" width="802.4" height="34" rx="5" fill="none" stroke="#d9fff8" stroke-opacity="0.50"/>
<text x="1514.4" y="377.0" class="value">148.6</text>
<text x="1574.4" y="377.0" class="small">tok/s</text>
<text x="670.0" y="437.0" class="label-highlight" text-anchor="end">neko-legends/Qwen3.6 35B NVFP4 MTP GGUF</text>
<text x="670.0" y="459.0" class="detail" text-anchor="end">8,907 prompt tokens; prefill 2.6s</text>
<rect x="700" y="416" width="792.7" height="34" rx="5" fill="#b6f26a" opacity="0.95"/>
<rect x="700" y="416" width="792.7" height="34" rx="5" fill="none" stroke="#d9fff8" stroke-opacity="0.50"/>
<text x="1504.7" y="441.0" class="value">146.8</text>
<text x="1564.7" y="441.0" class="small">tok/s</text>
<text x="670.0" y="501.0" class="label" text-anchor="end">AEON Ornith NVFP4 base GGUF</text>
<text x="670.0" y="523.0" class="detail" text-anchor="end">8,905 prompt tokens; prefill 1.9s</text>
<rect x="700" y="480" width="718.2" height="34" rx="5" fill="#54c7ff" opacity="0.95"/>
<rect x="700" y="480" width="718.2" height="34" rx="5" fill="none" stroke="#d9fff8" stroke-opacity="0.50"/>
<text x="1430.2" y="505.0" class="value">133.0</text>
<text x="1490.2" y="505.0" class="small">tok/s</text>
<text x="670.0" y="565.0" class="label" text-anchor="end">AEON Ornith Uncensored NVFP4 MTP</text>
<text x="670.0" y="587.0" class="detail" text-anchor="end">8,905 prompt tokens; prefill 2.2s</text>
<rect x="700" y="544" width="710.1" height="34" rx="5" fill="#82d56f" opacity="0.95"/>
<rect x="700" y="544" width="710.1" height="34" rx="5" fill="none" stroke="#d9fff8" stroke-opacity="0.50"/>
<text x="1422.1" y="569.0" class="value">131.5</text>
<text x="1482.1" y="569.0" class="small">tok/s</text>
<text x="670.0" y="629.0" class="label" text-anchor="end">Unsloth Qwen3.6 35B UD-Q4_K_XL</text>
<text x="670.0" y="651.0" class="detail" text-anchor="end">8,907 prompt tokens; prefill 2.4s</text>
<rect x="700" y="608" width="685.3" height="34" rx="5" fill="#9d82ff" opacity="0.95"/>
<rect x="700" y="608" width="685.3" height="34" rx="5" fill="none" stroke="#d9fff8" stroke-opacity="0.50"/>
<text x="1397.3" y="633.0" class="value">126.9</text>
<text x="1457.3" y="633.0" class="small">tok/s</text>
<text x="670.0" y="693.0" class="label" text-anchor="end">Qwopus3.6 27B Coder Q4_K_M</text>
<text x="670.0" y="715.0" class="detail" text-anchor="end">8,908 prompt tokens; prefill 3.8s</text>
<rect x="700" y="672" width="481.7" height="34" rx="5" fill="#f2b846" opacity="0.95"/>
<rect x="700" y="672" width="481.7" height="34" rx="5" fill="none" stroke="#d9fff8" stroke-opacity="0.50"/>
<text x="1193.7" y="697.0" class="value">89.2</text>
<text x="1253.7" y="697.0" class="small">tok/s</text>
<text x="670.0" y="757.0" class="label" text-anchor="end">Qwopus3.6 27B Coder Q5_K_M</text>
<text x="670.0" y="779.0" class="detail" text-anchor="end">8,907 prompt tokens; prefill 3.9s</text>
<rect x="700" y="736" width="429.3" height="34" rx="5" fill="#60a5ff" opacity="0.95"/>
<rect x="700" y="736" width="429.3" height="34" rx="5" fill="none" stroke="#d9fff8" stroke-opacity="0.50"/>
<text x="1141.3" y="761.0" class="value">79.5</text>
<text x="1201.3" y="761.0" class="small">tok/s</text>
<text x="72.0" y="860.0" class="group">200K prompt</text>
<text x="670.0" y="897.0" class="label" text-anchor="end">Ornith 1.0 35B Q4_K_M</text>
<text x="670.0" y="919.0" class="detail" text-anchor="end">174,588 prompt tokens; prefill 40.3s</text>
<rect x="700" y="876" width="576.2" height="34" rx="5" fill="#7edc72" opacity="0.95"/>
<rect x="700" y="876" width="576.2" height="34" rx="5" fill="none" stroke="#d9fff8" stroke-opacity="0.50"/>
<text x="1288.2" y="901.0" class="value">106.7</text>
<text x="1348.2" y="901.0" class="small">tok/s</text>
<text x="670.0" y="961.0" class="label" text-anchor="end">Qwopus3.6 35B A3B Coder Q5_K_M</text>
<text x="670.0" y="983.0" class="detail" text-anchor="end">174,590 prompt tokens; prefill 55.5s</text>
<rect x="700" y="940" width="553.5" height="34" rx="5" fill="#45d6c9" opacity="0.95"/>
<rect x="700" y="940" width="553.5" height="34" rx="5" fill="none" stroke="#d9fff8" stroke-opacity="0.50"/>
<text x="1265.5" y="965.0" class="value">102.5</text>
<text x="1325.5" y="965.0" class="small">tok/s</text>
<text x="670.0" y="1025.0" class="label" text-anchor="end">Qwopus3.6 35B A3B Coder Q4_K_M</text>
<text x="670.0" y="1047.0" class="detail" text-anchor="end">174,590 prompt tokens; prefill 55.1s</text>
<rect x="700" y="1004" width="492.5" height="34" rx="5" fill="#f2b846" opacity="0.95"/>
<rect x="700" y="1004" width="492.5" height="34" rx="5" fill="none" stroke="#d9fff8" stroke-opacity="0.50"/>
<text x="1204.5" y="1029.0" class="value">91.2</text>
<text x="1264.5" y="1029.0" class="small">tok/s</text>
<text x="670.0" y="1089.0" class="label" text-anchor="end">Unsloth Qwen3.6 35B UD-Q4_K_XL</text>
<text x="670.0" y="1111.0" class="detail" text-anchor="end">174,590 prompt tokens; prefill 57.1s</text>
<rect x="700" y="1068" width="483.3" height="34" rx="5" fill="#9d82ff" opacity="0.95"/>
<rect x="700" y="1068" width="483.3" height="34" rx="5" fill="none" stroke="#d9fff8" stroke-opacity="0.50"/>
<text x="1195.3" y="1093.0" class="value">89.5</text>
<text x="1255.3" y="1093.0" class="small">tok/s</text>
<text x="670.0" y="1153.0" class="label-highlight" text-anchor="end">neko-legends/Qwen3.6 35B NVFP4 MTP GGUF</text>
<text x="670.0" y="1175.0" class="detail" text-anchor="end">174,590 prompt tokens; prefill 51.8s</text>
<rect x="700" y="1132" width="477.9" height="34" rx="5" fill="#b6f26a" opacity="0.95"/>
<rect x="700" y="1132" width="477.9" height="34" rx="5" fill="none" stroke="#d9fff8" stroke-opacity="0.50"/>
<text x="1189.9" y="1157.0" class="value">88.5</text>
<text x="1249.9" y="1157.0" class="small">tok/s</text>
<text x="670.0" y="1217.0" class="label" text-anchor="end">AEON Ornith Uncensored NVFP4 MTP</text>
<text x="670.0" y="1239.0" class="detail" text-anchor="end">174,588 prompt tokens; prefill 52.1s</text>
<rect x="700" y="1196" width="464.4" height="34" rx="5" fill="#82d56f" opacity="0.95"/>
<rect x="700" y="1196" width="464.4" height="34" rx="5" fill="none" stroke="#d9fff8" stroke-opacity="0.50"/>
<text x="1176.4" y="1221.0" class="value">86.0</text>
<text x="1236.4" y="1221.0" class="small">tok/s</text>
<text x="670.0" y="1281.0" class="label" text-anchor="end">AEON Ornith NVFP4 base GGUF</text>
<text x="670.0" y="1303.0" class="detail" text-anchor="end">174,588 prompt tokens; prefill 41.0s</text>
<rect x="700" y="1260" width="443.3" height="34" rx="5" fill="#54c7ff" opacity="0.95"/>
<rect x="700" y="1260" width="443.3" height="34" rx="5" fill="none" stroke="#d9fff8" stroke-opacity="0.50"/>
<text x="1155.3" y="1285.0" class="value">82.1</text>
<text x="1215.3" y="1285.0" class="small">tok/s</text>
<text x="670.0" y="1345.0" class="label" text-anchor="end">Qwopus3.6 27B Coder Q5_K_M</text>
<text x="670.0" y="1367.0" class="detail" text-anchor="end">174,588 prompt tokens; prefill ~75.6s; estimated split</text>
<rect x="700" y="1324" width="379.1" height="34" rx="5" fill="#60a5ff" opacity="0.95"/>
<rect x="700" y="1324" width="379.1" height="34" rx="5" fill="none" stroke="#d9fff8" stroke-opacity="0.50"/>
<text x="1091.1" y="1349.0" class="value">70.2</text>
<text x="1151.1" y="1349.0" class="small">tok/s</text>
<text x="670.0" y="1409.0" class="label" text-anchor="end">Qwopus3.6 27B Coder Q4_K_M</text>
<text x="670.0" y="1431.0" class="detail" text-anchor="end">174,591 prompt tokens; prefill 141.1s</text>
<rect x="700" y="1388" width="250.6" height="34" rx="5" fill="#f2b846" opacity="0.95"/>
<rect x="700" y="1388" width="250.6" height="34" rx="5" fill="none" stroke="#d9fff8" stroke-opacity="0.50"/>
<text x="962.6" y="1413.0" class="value">46.4</text>
<text x="1022.6" y="1413.0" class="small">tok/s</text>
<text x="72.0" y="1578.0" class="small">Same BookContext prompt fixtures, 1024 generated tokens, temperature 0 unless noted in timing CSV.</text>
<text x="1828.0" y="1578.0" class="small" text-anchor="end">neko-legends/nvidia-local-llm-profiles</text>
</svg>
