<svg xmlns="http://www.w3.org/2000/svg" width="1900" height="2332" viewBox="0 0 1900 2332">
<style>
text{font-family:Segoe UI,Arial,sans-serif;letter-spacing:0}
.title{fill:#edf3f7;font-size:42px;font-weight:750}
.subtitle{fill:#b5bec8;font-size:20px}
.group{fill:#edf3f7;font-size:24px;font-weight:750}
.label{fill:#edf3f7;font-size:18px;font-weight:700}
.label-highlight{fill:#ff4d4d;font-size:20px;font-weight:900}
.detail{fill:#8e99a6;font-size:14px}
.value{fill:#edf3f7;font-size:21px;font-weight:750}
.small{fill:#9aa5b1;font-size:16px}
.axis{fill:#9aa5b1;font-size:15px}
</style>
<rect width="1900" height="2332" fill="#111418"/>
<rect x="672" y="188" width="1136" height="2032" rx="10" fill="#181e25"/>
<text x="72.0" y="76.0" class="title">RTX 5090 Local GGUF Long-Context Comparison</text>
<text x="72.0" y="118.0" class="subtitle">Bars are generation/decode speed only; prompt prefill seconds are shown separately.</text>
<text x="72.0" y="150.0" class="small">GGUF endpoints only. Updated July 21, 2026; vLLM and UI-observed rows are intentionally excluded.</text>
<line x1="700.0" y1="212" x2="700.0" y2="2186" stroke="#2f3742" stroke-width="1"/>
<text x="700.0" y="2210.0" class="axis" text-anchor="middle">0</text>
<line x1="835.0" y1="212" x2="835.0" y2="2186" stroke="#2f3742" stroke-width="1"/>
<text x="835.0" y="2210.0" class="axis" text-anchor="middle">25</text>
<line x1="970.0" y1="212" x2="970.0" y2="2186" stroke="#2f3742" stroke-width="1"/>
<text x="970.0" y="2210.0" class="axis" text-anchor="middle">50</text>
<line x1="1105.0" y1="212" x2="1105.0" y2="2186" stroke="#2f3742" stroke-width="1"/>
<text x="1105.0" y="2210.0" class="axis" text-anchor="middle">75</text>
<line x1="1240.0" y1="212" x2="1240.0" y2="2186" stroke="#2f3742" stroke-width="1"/>
<text x="1240.0" y="2210.0" class="axis" text-anchor="middle">100</text>
<line x1="1375.0" y1="212" x2="1375.0" y2="2186" stroke="#2f3742" stroke-width="1"/>
<text x="1375.0" y="2210.0" class="axis" text-anchor="middle">125</text>
<line x1="1510.0" y1="212" x2="1510.0" y2="2186" stroke="#2f3742" stroke-width="1"/>
<text x="1510.0" y="2210.0" class="axis" text-anchor="middle">150</text>
<line x1="1645.0" y1="212" x2="1645.0" y2="2186" stroke="#2f3742" stroke-width="1"/>
<text x="1645.0" y="2210.0" class="axis" text-anchor="middle">175</text>
<line x1="1780.0" y1="212" x2="1780.0" y2="2186" stroke="#2f3742" stroke-width="1"/>
<text x="1780.0" y="2210.0" class="axis" text-anchor="middle">200</text>
<text x="72.0" y="208.0" class="group">10K prompt</text>
<text x="670.0" y="245.0" class="label" text-anchor="end" style="">Ornith 1.0 35B Q4_K_M</text>
<text x="670.0" y="267.0" class="detail" text-anchor="end">8,905 prompt tokens; prefill 1.7s</text>
<rect x="700" y="224" width="996.3" height="34" rx="5" fill="#7edc72" opacity="0.95"/>
<rect x="700" y="224" width="996.3" height="34" rx="5" fill="none" stroke="#d9fff8" stroke-opacity="0.50"/>
<text x="1708.3" y="249.0" class="value">184.5</text>
<text x="1768.3" y="249.0" class="small">tok/s</text>
<text x="670.0" y="309.0" class="label" text-anchor="end" style="">Qwopus3.6 35B A3B Coder Q4_K_M</text>
<text x="670.0" y="331.0" class="detail" text-anchor="end">8,907 prompt tokens; prefill 2.2s</text>
<rect x="700" y="288" width="977.4" height="34" rx="5" fill="#f2b846" opacity="0.95"/>
<rect x="700" y="288" width="977.4" height="34" rx="5" fill="none" stroke="#d9fff8" stroke-opacity="0.50"/>
<text x="1689.4" y="313.0" class="value">181.0</text>
<text x="1749.4" y="313.0" class="small">tok/s</text>
<text x="670.0" y="373.0" class="label" text-anchor="end" style="">Unsloth Qwen3.6 35B A3B NVFP4 MTP</text>
<text x="670.0" y="395.0" class="detail" text-anchor="end">8,907 prompt tokens; prefill 2.4s</text>
<rect x="700" y="352" width="816.5" height="34" rx="5" fill="#e7b84b" opacity="0.95"/>
<rect x="700" y="352" width="816.5" height="34" rx="5" fill="none" stroke="#d9fff8" stroke-opacity="0.50"/>
<text x="1528.5" y="377.0" class="value">151.2</text>
<text x="1588.5" y="377.0" class="small">tok/s</text>
<text x="670.0" y="437.0" class="label-highlight" text-anchor="end" style="">neko-legends/Qwen3.6 35B NVFP4 MTP GGUF</text>
<text x="670.0" y="459.0" class="detail" text-anchor="end">8,907 prompt tokens; prefill 2.4s</text>
<rect x="700" y="416" width="814.9" height="34" rx="5" fill="#b6f26a" opacity="0.95"/>
<rect x="700" y="416" width="814.9" height="34" rx="5" fill="none" stroke="#d9fff8" stroke-opacity="0.50"/>
<text x="1526.9" y="441.0" class="value">150.9</text>
<text x="1586.9" y="441.0" class="small">tok/s</text>
<text x="670.0" y="501.0" class="label" text-anchor="end" style="">Qwopus3.6 35B A3B Coder Q5_K_M</text>
<text x="670.0" y="523.0" class="detail" text-anchor="end">8,907 prompt tokens; prefill 2.1s</text>
<rect x="700" y="480" width="802.4" height="34" rx="5" fill="#45d6c9" opacity="0.95"/>
<rect x="700" y="480" width="802.4" height="34" rx="5" fill="none" stroke="#d9fff8" stroke-opacity="0.50"/>
<text x="1514.4" y="505.0" class="value">148.6</text>
<text x="1574.4" y="505.0" class="small">tok/s</text>
<text x="670.0" y="565.0" class="label-highlight" text-anchor="end" style="fill:#ff8a2a">Poolside Laguna XS 2.1 Q4_K_M (base)</text>
<text x="670.0" y="587.0" class="detail" text-anchor="end">9,379 prompt tokens; prefill 1.8s</text>
<rect x="700" y="544" width="735.8" height="34" rx="5" fill="#ff8a2a" opacity="0.95"/>
<rect x="700" y="544" width="735.8" height="34" rx="5" fill="none" stroke="#d9fff8" stroke-opacity="0.50"/>
<text x="1447.8" y="569.0" class="value">136.3</text>
<text x="1507.8" y="569.0" class="small">tok/s</text>
<text x="670.0" y="629.0" class="label" text-anchor="end" style="">Unsloth Qwen3.6 35B NVFP4 Fast MTP</text>
<text x="670.0" y="651.0" class="detail" text-anchor="end">8,907 prompt tokens; prefill 2.2s</text>
<rect x="700" y="608" width="730.2" height="34" rx="5" fill="#ff8a4c" opacity="0.95"/>
<rect x="700" y="608" width="730.2" height="34" rx="5" fill="none" stroke="#d9fff8" stroke-opacity="0.50"/>
<text x="1442.2" y="633.0" class="value">135.2</text>
<text x="1502.2" y="633.0" class="small">tok/s</text>
<text x="670.0" y="693.0" class="label" text-anchor="end" style="">AEON Ornith NVFP4 base GGUF</text>
<text x="670.0" y="715.0" class="detail" text-anchor="end">8,905 prompt tokens; prefill 1.9s</text>
<rect x="700" y="672" width="718.2" height="34" rx="5" fill="#54c7ff" opacity="0.95"/>
<rect x="700" y="672" width="718.2" height="34" rx="5" fill="none" stroke="#d9fff8" stroke-opacity="0.50"/>
<text x="1430.2" y="697.0" class="value">133.0</text>
<text x="1490.2" y="697.0" class="small">tok/s</text>
<text x="670.0" y="757.0" class="label" text-anchor="end" style="">AEON Ornith Uncensored NVFP4 MTP</text>
<text x="670.0" y="779.0" class="detail" text-anchor="end">8,905 prompt tokens; prefill 2.2s</text>
<rect x="700" y="736" width="710.1" height="34" rx="5" fill="#82d56f" opacity="0.95"/>
<rect x="700" y="736" width="710.1" height="34" rx="5" fill="none" stroke="#d9fff8" stroke-opacity="0.50"/>
<text x="1422.1" y="761.0" class="value">131.5</text>
<text x="1482.1" y="761.0" class="small">tok/s</text>
<text x="670.0" y="821.0" class="label" text-anchor="end" style="">Unsloth Qwen3.6 35B UD-Q4_K_XL</text>
<text x="670.0" y="843.0" class="detail" text-anchor="end">8,907 prompt tokens; prefill 2.4s</text>
<rect x="700" y="800" width="685.3" height="34" rx="5" fill="#9d82ff" opacity="0.95"/>
<rect x="700" y="800" width="685.3" height="34" rx="5" fill="none" stroke="#d9fff8" stroke-opacity="0.50"/>
<text x="1397.3" y="825.0" class="value">126.9</text>
<text x="1457.3" y="825.0" class="small">tok/s</text>
<text x="670.0" y="885.0" class="label-highlight" text-anchor="end" style="fill:#ff8a2a">Laguna XS 2.1 + DFlash/KVFlash (CodeContext)</text>
<text x="670.0" y="907.0" class="detail" text-anchor="end">9,351 prompt tokens; prefill 2.2s</text>
<rect x="700" y="864" width="680.9" height="34" rx="5" fill="#ff8a2a" opacity="0.95"/>
<rect x="700" y="864" width="680.9" height="34" rx="5" fill="none" stroke="#d9fff8" stroke-opacity="0.50"/>
<text x="1392.9" y="889.0" class="value">126.1</text>
<text x="1452.9" y="889.0" class="small">tok/s</text>
<text x="670.0" y="949.0" class="label" text-anchor="end" style="">Qwopus3.6 27B Coder Q4_K_M</text>
<text x="670.0" y="971.0" class="detail" text-anchor="end">8,908 prompt tokens; prefill 3.8s</text>
<rect x="700" y="928" width="481.7" height="34" rx="5" fill="#f2b846" opacity="0.95"/>
<rect x="700" y="928" width="481.7" height="34" rx="5" fill="none" stroke="#d9fff8" stroke-opacity="0.50"/>
<text x="1193.7" y="953.0" class="value">89.2</text>
<text x="1253.7" y="953.0" class="small">tok/s</text>
<text x="670.0" y="1013.0" class="label" text-anchor="end" style="">Qwopus3.6 27B Coder Q5_K_M</text>
<text x="670.0" y="1035.0" class="detail" text-anchor="end">8,907 prompt tokens; prefill 3.9s</text>
<rect x="700" y="992" width="429.3" height="34" rx="5" fill="#60a5ff" opacity="0.95"/>
<rect x="700" y="992" width="429.3" height="34" rx="5" fill="none" stroke="#d9fff8" stroke-opacity="0.50"/>
<text x="1141.3" y="1017.0" class="value">79.5</text>
<text x="1201.3" y="1017.0" class="small">tok/s</text>
<text x="670.0" y="1077.0" class="label" text-anchor="end" style="">Unsloth Qwen3.6 27B NVFP4 MTP</text>
<text x="670.0" y="1099.0" class="detail" text-anchor="end">8,907 prompt tokens; prefill 3.0s</text>
<rect x="700" y="1056" width="393.1" height="34" rx="5" fill="#e7b84b" opacity="0.95"/>
<rect x="700" y="1056" width="393.1" height="34" rx="5" fill="none" stroke="#d9fff8" stroke-opacity="0.50"/>
<text x="1105.1" y="1081.0" class="value">72.8</text>
<text x="1165.1" y="1081.0" class="small">tok/s</text>
<text x="670.0" y="1141.0" class="label" text-anchor="end" style="">NVIDIA Qwen3.6 27B NVFP4 MTP</text>
<text x="670.0" y="1163.0" class="detail" text-anchor="end">8,907 prompt tokens; prefill 3.3s</text>
<rect x="700" y="1120" width="372.6" height="34" rx="5" fill="#8fa3ba" opacity="0.95"/>
<rect x="700" y="1120" width="372.6" height="34" rx="5" fill="none" stroke="#d9fff8" stroke-opacity="0.50"/>
<text x="1084.6" y="1145.0" class="value">69.0</text>
<text x="1144.6" y="1145.0" class="small">tok/s</text>
<text x="72.0" y="1244.0" class="group">200K prompt</text>
<text x="670.0" y="1281.0" class="label-highlight" text-anchor="end" style="fill:#ff8a2a">Laguna XS 2.1 + DFlash/KVFlash (CodeContext)</text>
<text x="670.0" y="1303.0" class="detail" text-anchor="end">185,357 prompt tokens; prefill 46.5s</text>
<rect x="700" y="1260" width="866.2" height="34" rx="5" fill="#ff8a2a" opacity="0.95"/>
<rect x="700" y="1260" width="866.2" height="34" rx="5" fill="none" stroke="#d9fff8" stroke-opacity="0.50"/>
<text x="1578.2" y="1285.0" class="value">160.4</text>
<text x="1638.2" y="1285.0" class="small">tok/s</text>
<text x="670.0" y="1345.0" class="label" text-anchor="end" style="">Ornith 1.0 35B Q4_K_M</text>
<text x="670.0" y="1367.0" class="detail" text-anchor="end">174,588 prompt tokens; prefill 40.3s</text>
<rect x="700" y="1324" width="576.2" height="34" rx="5" fill="#7edc72" opacity="0.95"/>
<rect x="700" y="1324" width="576.2" height="34" rx="5" fill="none" stroke="#d9fff8" stroke-opacity="0.50"/>
<text x="1288.2" y="1349.0" class="value">106.7</text>
<text x="1348.2" y="1349.0" class="small">tok/s</text>
<text x="670.0" y="1409.0" class="label" text-anchor="end" style="">Qwopus3.6 35B A3B Coder Q5_K_M</text>
<text x="670.0" y="1431.0" class="detail" text-anchor="end">174,590 prompt tokens; prefill 51.3s</text>
<rect x="700" y="1388" width="574.0" height="34" rx="5" fill="#45d6c9" opacity="0.95"/>
<rect x="700" y="1388" width="574.0" height="34" rx="5" fill="none" stroke="#d9fff8" stroke-opacity="0.50"/>
<text x="1286.0" y="1413.0" class="value">106.3</text>
<text x="1346.0" y="1413.0" class="small">tok/s</text>
<text x="670.0" y="1473.0" class="label" text-anchor="end" style="">Unsloth Qwen3.6 35B A3B NVFP4 MTP</text>
<text x="670.0" y="1495.0" class="detail" text-anchor="end">174,590 prompt tokens; prefill 50.4s</text>
<rect x="700" y="1452" width="503.3" height="34" rx="5" fill="#e7b84b" opacity="0.95"/>
<rect x="700" y="1452" width="503.3" height="34" rx="5" fill="none" stroke="#d9fff8" stroke-opacity="0.50"/>
<text x="1215.3" y="1477.0" class="value">93.2</text>
<text x="1275.3" y="1477.0" class="small">tok/s</text>
<text x="670.0" y="1537.0" class="label" text-anchor="end" style="">Qwopus3.6 35B A3B Coder Q4_K_M</text>
<text x="670.0" y="1559.0" class="detail" text-anchor="end">174,590 prompt tokens; prefill 55.1s</text>
<rect x="700" y="1516" width="492.5" height="34" rx="5" fill="#f2b846" opacity="0.95"/>
<rect x="700" y="1516" width="492.5" height="34" rx="5" fill="none" stroke="#d9fff8" stroke-opacity="0.50"/>
<text x="1204.5" y="1541.0" class="value">91.2</text>
<text x="1264.5" y="1541.0" class="small">tok/s</text>
<text x="670.0" y="1601.0" class="label-highlight" text-anchor="end" style="">neko-legends/Qwen3.6 35B NVFP4 MTP GGUF</text>
<text x="670.0" y="1623.0" class="detail" text-anchor="end">174,590 prompt tokens; prefill 51.4s</text>
<rect x="700" y="1580" width="487.1" height="34" rx="5" fill="#b6f26a" opacity="0.95"/>
<rect x="700" y="1580" width="487.1" height="34" rx="5" fill="none" stroke="#d9fff8" stroke-opacity="0.50"/>
<text x="1199.1" y="1605.0" class="value">90.2</text>
<text x="1259.1" y="1605.0" class="small">tok/s</text>
<text x="670.0" y="1665.0" class="label" text-anchor="end" style="">Unsloth Qwen3.6 35B UD-Q4_K_XL</text>
<text x="670.0" y="1687.0" class="detail" text-anchor="end">174,590 prompt tokens; prefill 57.1s</text>
<rect x="700" y="1644" width="483.3" height="34" rx="5" fill="#9d82ff" opacity="0.95"/>
<rect x="700" y="1644" width="483.3" height="34" rx="5" fill="none" stroke="#d9fff8" stroke-opacity="0.50"/>
<text x="1195.3" y="1669.0" class="value">89.5</text>
<text x="1255.3" y="1669.0" class="small">tok/s</text>
<text x="670.0" y="1729.0" class="label" text-anchor="end" style="">AEON Ornith Uncensored NVFP4 MTP</text>
<text x="670.0" y="1751.0" class="detail" text-anchor="end">174,588 prompt tokens; prefill 52.1s</text>
<rect x="700" y="1708" width="464.4" height="34" rx="5" fill="#82d56f" opacity="0.95"/>
<rect x="700" y="1708" width="464.4" height="34" rx="5" fill="none" stroke="#d9fff8" stroke-opacity="0.50"/>
<text x="1176.4" y="1733.0" class="value">86.0</text>
<text x="1236.4" y="1733.0" class="small">tok/s</text>
<text x="670.0" y="1793.0" class="label" text-anchor="end" style="">Unsloth Qwen3.6 35B NVFP4 Fast MTP</text>
<text x="670.0" y="1815.0" class="detail" text-anchor="end">174,590 prompt tokens; prefill 52.8s</text>
<rect x="700" y="1772" width="454.0" height="34" rx="5" fill="#ff8a4c" opacity="0.95"/>
<rect x="700" y="1772" width="454.0" height="34" rx="5" fill="none" stroke="#d9fff8" stroke-opacity="0.50"/>
<text x="1166.0" y="1797.0" class="value">84.1</text>
<text x="1226.0" y="1797.0" class="small">tok/s</text>
<text x="670.0" y="1857.0" class="label" text-anchor="end" style="">AEON Ornith NVFP4 base GGUF</text>
<text x="670.0" y="1879.0" class="detail" text-anchor="end">174,588 prompt tokens; prefill 41.0s</text>
<rect x="700" y="1836" width="443.3" height="34" rx="5" fill="#54c7ff" opacity="0.95"/>
<rect x="700" y="1836" width="443.3" height="34" rx="5" fill="none" stroke="#d9fff8" stroke-opacity="0.50"/>
<text x="1155.3" y="1861.0" class="value">82.1</text>
<text x="1215.3" y="1861.0" class="small">tok/s</text>
<text x="670.0" y="1921.0" class="label" text-anchor="end" style="">Qwopus3.6 27B Coder Q5_K_M</text>
<text x="670.0" y="1943.0" class="detail" text-anchor="end">174,590 prompt tokens; prefill 138.0s</text>
<rect x="700" y="1900" width="259.2" height="34" rx="5" fill="#60a5ff" opacity="0.95"/>
<rect x="700" y="1900" width="259.2" height="34" rx="5" fill="none" stroke="#d9fff8" stroke-opacity="0.50"/>
<text x="971.2" y="1925.0" class="value">48.0</text>
<text x="1031.2" y="1925.0" class="small">tok/s</text>
<text x="670.0" y="1985.0" class="label" text-anchor="end" style="">Qwopus3.6 27B Coder Q4_K_M</text>
<text x="670.0" y="2007.0" class="detail" text-anchor="end">174,591 prompt tokens; prefill 141.1s</text>
<rect x="700" y="1964" width="250.6" height="34" rx="5" fill="#f2b846" opacity="0.95"/>
<rect x="700" y="1964" width="250.6" height="34" rx="5" fill="none" stroke="#d9fff8" stroke-opacity="0.50"/>
<text x="962.6" y="1989.0" class="value">46.4</text>
<text x="1022.6" y="1989.0" class="small">tok/s</text>
<text x="670.0" y="2049.0" class="label" text-anchor="end" style="">Unsloth Qwen3.6 27B NVFP4 MTP</text>
<text x="670.0" y="2071.0" class="detail" text-anchor="end">174,590 prompt tokens; prefill 126.9s</text>
<rect x="700" y="2028" width="238.1" height="34" rx="5" fill="#e7b84b" opacity="0.95"/>
<rect x="700" y="2028" width="238.1" height="34" rx="5" fill="none" stroke="#d9fff8" stroke-opacity="0.50"/>
<text x="950.1" y="2053.0" class="value">44.1</text>
<text x="1010.1" y="2053.0" class="small">tok/s</text>
<text x="670.0" y="2113.0" class="label" text-anchor="end" style="">NVIDIA Qwen3.6 27B NVFP4 MTP</text>
<text x="670.0" y="2135.0" class="detail" text-anchor="end">174,590 prompt tokens; prefill 131.3s</text>
<rect x="700" y="2092" width="227.9" height="34" rx="5" fill="#8fa3ba" opacity="0.95"/>
<rect x="700" y="2092" width="227.9" height="34" rx="5" fill="none" stroke="#d9fff8" stroke-opacity="0.50"/>
<text x="939.9" y="2117.0" class="value">42.2</text>
<text x="999.9" y="2117.0" class="small">tok/s</text>
<text x="72.0" y="2282.0" class="small">BookContext except labeled Laguna DFlash CodeContext rows; up to 1024 generated tokens, temperature 0.</text>
<text x="1828.0" y="2282.0" class="small" text-anchor="end">neko-legends/nvidia-local-llm-profiles</text>
</svg>
